<svg width="101" height="101" viewBox="0 0 101 101" fill="none" xmlns="http://www.w3.org/2000/svg">
<mask id="mask0_142_14" style="mask-type:luminance" maskUnits="userSpaceOnUse" x="2" y="2" width="97" height="97">
<path d="M3.53719 46.9729C1.58387 48.9259 1.58416 52.0927 3.53785 54.0453L46.9817 97.4647C48.9345 99.4164 52.0995 99.416 54.0517 97.4637L97.4712 54.0443C99.4235 52.092 99.4238 48.9266 97.4718 46.9739L54.0524 3.53824C52.1 1.58512 48.9339 1.58467 46.981 3.53724L3.53719 46.9729Z" fill="white"/>
</mask>
<g mask="url(#mask0_142_14)">
<path d="M98.4253 -2.41693C101.187 -2.41693 103.425 -0.178355 103.425 2.58307V50.5006V98.4183C103.425 101.18 101.187 103.418 98.4253 103.418H50.5029H2.58044C-0.180985 103.418 -2.41956 101.18 -2.41956 98.4183V50.5006V2.58307C-2.41956 -0.178351 -0.18098 -2.41693 2.58044 -2.41693H50.5029H98.4253Z" fill="black"/>
</g>
<path d="M25.543 59.4497C24.4123 59.4497 23.399 59.2577 22.503 58.8737C21.607 58.4684 20.8923 57.8924 20.359 57.1457C19.847 56.3777 19.591 55.4497 19.591 54.3617C19.591 53.2737 19.847 52.367 20.359 51.6417C20.8923 50.895 21.6177 50.3404 22.535 49.9777C23.4737 49.5937 24.5403 49.4017 25.735 49.4017H30.087V48.5057C30.087 47.759 29.8523 47.151 29.383 46.6817C28.9137 46.191 28.167 45.9457 27.143 45.9457C26.1403 45.9457 25.3937 46.1804 24.903 46.6497C24.4123 47.0977 24.0923 47.6844 23.943 48.4097L20.231 47.1617C20.487 46.351 20.8923 45.615 21.447 44.9537C22.023 44.271 22.7803 43.727 23.719 43.3217C24.679 42.895 25.8417 42.6817 27.207 42.6817C29.2977 42.6817 30.951 43.2044 32.167 44.2497C33.383 45.295 33.991 46.8097 33.991 48.7937V54.7137C33.991 55.3537 34.2897 55.6737 34.887 55.6737H36.167V59.0017H33.479C32.6897 59.0017 32.039 58.8097 31.527 58.4257C31.015 58.0417 30.759 57.5297 30.759 56.8897V56.8577H30.151C30.0657 57.1137 29.8737 57.455 29.575 57.8817C29.2763 58.287 28.807 58.6497 28.167 58.9697C27.527 59.2897 26.6523 59.4497 25.543 59.4497ZM26.247 56.1857C27.3777 56.1857 28.295 55.8764 28.999 55.2577C29.7243 54.6177 30.087 53.775 30.087 52.7297V52.4097H26.023C25.2763 52.4097 24.6897 52.5697 24.263 52.8897C23.8363 53.2097 23.623 53.6577 23.623 54.2337C23.623 54.8097 23.847 55.279 24.295 55.6417C24.743 56.0044 25.3937 56.1857 26.247 56.1857ZM46.2585 59.4497C44.7225 59.4497 43.3252 59.1297 42.0665 58.4897C40.8292 57.8497 39.8478 56.9217 39.1225 55.7057C38.3972 54.4897 38.0345 53.0177 38.0345 51.2897V50.8417C38.0345 49.1137 38.3972 47.6417 39.1225 46.4257C39.8478 45.2097 40.8292 44.2817 42.0665 43.6417C43.3252 43.0017 44.7225 42.6817 46.2585 42.6817C47.7732 42.6817 49.0745 42.9484 50.1625 43.4817C51.2505 44.015 52.1252 44.751 52.7865 45.6897C53.4692 46.607 53.9172 47.6524 54.1305 48.8257L50.2265 49.6577C50.1412 49.0177 49.9492 48.4417 49.6505 47.9297C49.3518 47.4177 48.9252 47.0124 48.3705 46.7137C47.8372 46.415 47.1652 46.2657 46.3545 46.2657C45.5438 46.2657 44.8078 46.447 44.1465 46.8097C43.5065 47.151 42.9945 47.6737 42.6105 48.3777C42.2478 49.0604 42.0665 49.903 42.0665 50.9057V51.2257C42.0665 52.2284 42.2478 53.0817 42.6105 53.7857C42.9945 54.4684 43.5065 54.991 44.1465 55.3537C44.8078 55.695 45.5438 55.8657 46.3545 55.8657C47.5705 55.8657 48.4878 55.5564 49.1065 54.9377C49.7465 54.2977 50.1518 53.4657 50.3225 52.4417L54.2265 53.3697C53.9492 54.5004 53.4692 55.535 52.7865 56.4737C52.1252 57.391 51.2505 58.1164 50.1625 58.6497C49.0745 59.183 47.7732 59.4497 46.2585 59.4497ZM57.5525 59.0017V43.1297H61.5205V44.8577H62.0965C62.3738 44.3244 62.8325 43.8657 63.4725 43.4817C64.1125 43.0764 64.9552 42.8737 66.0005 42.8737C67.1312 42.8737 68.0378 43.0977 68.7205 43.5457C69.4032 43.9724 69.9258 44.5377 70.2885 45.2417H70.8645C71.2272 44.559 71.7392 43.9937 72.4005 43.5457C73.0618 43.0977 74.0005 42.8737 75.2165 42.8737C76.1978 42.8737 77.0832 43.087 77.8725 43.5137C78.6832 43.919 79.3232 44.5484 79.7925 45.4017C80.2832 46.2337 80.5285 47.2897 80.5285 48.5697V59.0017H76.4965V48.8577C76.4965 47.983 76.2725 47.3324 75.8245 46.9057C75.3765 46.4577 74.7472 46.2337 73.9365 46.2337C73.0192 46.2337 72.3045 46.5324 71.7925 47.1297C71.3018 47.7057 71.0565 48.5377 71.0565 49.6257V59.0017H67.0245V48.8577C67.0245 47.983 66.8005 47.3324 66.3525 46.9057C65.9045 46.4577 65.2752 46.2337 64.4645 46.2337C63.5472 46.2337 62.8325 46.5324 62.3205 47.1297C61.8298 47.7057 61.5845 48.5377 61.5845 49.6257V59.0017H57.5525Z" fill="white"/>
</svg>
